<svg width="1440" height="900" viewBox="0 0 1440 900" fill="none" xmlns="http://www.w3.org/2000/svg">
<rect y="-1" width="1440" height="900" fill="#A5D0D0"/>
<path d="M-51.6732 674.318C-88.487 704.263 -67.0123 740.625 -51.6732 755.062C-51.6732 793.991 20.2619 802.653 36.1299 769.5C54.3252 796.45 98.0152 797.841 111.239 764.153C138.743 794.098 186.347 780.729 177.884 744.368C223.373 729.395 208.739 703.015 197.455 686.082C213.534 640.737 173.124 623.519 152.495 624.053C138.743 574.323 86.026 597.317 76.3289 610.15C47.2375 571.115 8.62531 600.882 -7.24271 619.241C-56.3278 619.241 -57.3151 655.959 -51.6732 674.318Z" fill="white" fill-opacity="0.6"/>
<path d="M-111.384 215.318C-148.722 245.263 -126.941 281.625 -111.384 296.062C-111.384 334.991 -38.4248 343.653 -22.3309 310.5C-3.87657 337.45 40.4353 338.841 53.8469 305.153C81.743 335.098 130.025 321.729 121.441 285.368C167.577 270.395 152.735 244.015 141.29 227.082C157.599 181.737 116.613 164.519 95.691 165.053C81.743 115.323 28.2755 138.317 18.4403 151.15C-11.0652 112.115 -50.227 141.882 -66.3209 160.241C-116.105 160.241 -117.106 196.959 -111.384 215.318Z" fill="white" fill-opacity="0.6"/>
<path d="M238.327 -15.682C201.513 14.2629 222.988 50.6246 238.327 65.0623C238.327 103.991 310.262 112.653 326.13 79.5C344.325 106.45 388.015 107.841 401.239 74.1527C428.743 104.098 476.347 90.7293 467.884 54.3677C513.373 39.3952 498.739 13.0152 487.455 -3.91792C503.534 -49.263 463.124 -66.4813 442.495 -65.9466C428.743 -115.677 376.026 -92.6831 366.329 -79.8496C337.237 -118.885 298.625 -89.1182 282.757 -70.7592C233.672 -70.7592 232.685 -34.0411 238.327 -15.682Z" fill="white" fill-opacity="0.8"/>
<path d="M948.327 -2.68199C911.513 27.2629 932.988 63.6246 948.327 78.0623C948.327 116.991 1020.26 125.653 1036.13 92.5C1054.33 119.45 1098.02 120.841 1111.24 87.1527C1138.74 117.098 1186.35 103.729 1177.88 67.3677C1223.37 52.3952 1208.74 26.0152 1197.45 9.08208C1213.53 -36.263 1173.12 -53.4813 1152.5 -52.9466C1138.74 -102.677 1086.03 -79.6831 1076.33 -66.8496C1047.24 -105.885 1008.63 -76.1182 992.757 -57.7592C943.672 -57.7592 942.685 -21.0411 948.327 -2.68199Z" fill="white" fill-opacity="0.8"/>
<path d="M1288.33 612.318C1251.51 642.263 1272.99 678.625 1288.33 693.062C1288.33 731.991 1360.26 740.653 1376.13 707.5C1394.33 734.45 1438.02 735.841 1451.24 702.153C1478.74 732.098 1526.35 718.729 1517.88 682.368C1563.37 667.395 1548.74 641.015 1537.45 624.082C1553.53 578.737 1513.12 561.519 1492.5 562.053C1478.74 512.323 1426.03 535.317 1416.33 548.15C1387.24 509.115 1348.63 538.882 1332.76 557.241C1283.67 557.241 1282.68 593.959 1288.33 612.318Z" fill="white" fill-opacity="0.8"/>
<path d="M1260.33 230.318C1223.51 260.263 1244.99 296.625 1260.33 311.062C1260.33 349.991 1332.26 358.653 1348.13 325.5C1366.33 352.45 1410.02 353.841 1423.24 320.153C1450.74 350.098 1498.35 336.729 1489.88 300.368C1535.37 285.395 1520.74 259.015 1509.45 242.082C1525.53 196.737 1485.12 179.519 1464.5 180.053C1450.74 130.323 1398.03 153.317 1388.33 166.15C1359.24 127.115 1320.63 156.882 1304.76 175.241C1255.67 175.241 1254.68 211.959 1260.33 230.318Z" fill="white" fill-opacity="0.8"/>
<path d="M979.327 883.318C942.513 913.263 963.988 949.625 979.327 964.062C979.327 1002.99 1051.26 1011.65 1067.13 978.5C1085.33 1005.45 1129.02 1006.84 1142.24 973.153C1169.74 1003.1 1217.35 989.729 1208.88 953.368C1254.37 938.395 1239.74 912.015 1228.45 895.082C1244.53 849.737 1204.12 832.519 1183.5 833.053C1169.74 783.323 1117.03 806.317 1107.33 819.15C1078.24 780.115 1039.63 809.882 1023.76 828.241C974.672 828.241 973.685 864.959 979.327 883.318Z" fill="white" fill-opacity="0.8"/>
<path d="M231.327 883.318C194.513 913.263 215.988 949.625 231.327 964.062C231.327 1002.99 303.262 1011.65 319.13 978.5C337.325 1005.45 381.015 1006.84 394.239 973.153C421.743 1003.1 469.347 989.729 460.884 953.368C506.373 938.395 491.739 912.015 480.455 895.082C496.534 849.737 456.124 832.519 435.495 833.053C421.743 783.323 369.026 806.317 359.329 819.15C330.237 780.115 291.625 809.882 275.757 828.241C226.672 828.241 225.685 864.959 231.327 883.318Z" fill="white" fill-opacity="0.8"/>
<path d="M-67.7851 679.907C-102.585 707.907 -82.2851 741.907 -67.7851 755.407C-67.7851 791.807 0.214905 799.907 15.2149 768.907C32.4149 794.107 73.7149 795.407 86.2149 763.907C112.215 791.907 157.215 779.407 149.215 745.407C192.215 731.407 178.382 706.74 167.715 690.907C182.915 648.507 144.715 632.407 125.215 632.907C112.215 586.407 62.3816 607.907 53.2149 619.907C25.7149 583.407 -10.7851 611.24 -25.7851 628.407C-72.1851 628.407 -73.1184 662.74 -67.7851 679.907Z" fill="white" stroke="white" stroke-width="5"/>
<path d="M271.215 908.907C236.415 936.907 256.715 970.907 271.215 984.407C271.215 1020.81 339.215 1028.91 354.215 997.907C371.415 1023.11 412.715 1024.41 425.215 992.907C451.215 1020.91 496.215 1008.41 488.215 974.407C531.215 960.407 517.382 935.74 506.715 919.907C521.915 877.507 483.715 861.407 464.215 861.907C451.215 815.407 401.382 836.907 392.215 848.907C364.715 812.407 328.215 840.24 313.215 857.407C266.815 857.407 265.882 891.74 271.215 908.907Z" fill="white" stroke="white" stroke-width="5"/>
<path d="M1039.21 914.907C1004.41 942.907 1024.71 976.907 1039.21 990.407C1039.21 1026.81 1107.21 1034.91 1122.21 1003.91C1139.41 1029.11 1180.71 1030.41 1193.21 998.907C1219.21 1026.91 1264.21 1014.41 1256.21 980.407C1299.21 966.407 1285.38 941.74 1274.71 925.907C1289.91 883.507 1251.71 867.407 1232.21 867.907C1219.21 821.407 1169.38 842.907 1160.21 854.907C1132.71 818.407 1096.21 846.24 1081.21 863.407C1034.81 863.407 1033.88 897.74 1039.21 914.907Z" fill="white" stroke="white" stroke-width="5"/>
<path d="M1236.21 209.907C1201.41 237.907 1221.71 271.907 1236.21 285.407C1236.21 321.807 1304.21 329.907 1319.21 298.907C1336.41 324.107 1377.71 325.407 1390.21 293.907C1416.21 321.907 1461.21 309.407 1453.21 275.407C1496.21 261.407 1482.38 236.74 1471.71 220.907C1486.91 178.507 1448.71 162.407 1429.21 162.907C1416.21 116.407 1366.38 137.907 1357.21 149.907C1329.71 113.407 1293.21 141.24 1278.21 158.407C1231.81 158.407 1230.88 192.74 1236.21 209.907Z" fill="white" stroke="white" stroke-width="5"/>
<path d="M1336.21 598.907C1301.41 626.907 1321.71 660.907 1336.21 674.407C1336.21 710.807 1404.21 718.907 1419.21 687.907C1436.41 713.107 1477.71 714.407 1490.21 682.907C1516.21 710.907 1561.21 698.407 1553.21 664.407C1596.21 650.407 1582.38 625.74 1571.71 609.907C1586.91 567.507 1548.71 551.407 1529.21 551.907C1516.21 505.407 1466.38 526.907 1457.21 538.907C1429.71 502.407 1393.21 530.24 1378.21 547.407C1331.81 547.407 1330.88 581.74 1336.21 598.907Z" fill="white" stroke="white" stroke-width="5"/>
<path d="M279.215 -34.0934C244.415 -6.09341 264.715 27.9066 279.215 41.4066C279.215 77.8066 347.215 85.9066 362.215 54.9066C379.415 80.1066 420.715 81.4066 433.215 49.9066C459.215 77.9066 504.215 65.4066 496.215 31.4066C539.215 17.4066 525.382 -7.26007 514.715 -23.0934C529.915 -65.4934 491.715 -81.5934 472.215 -81.0934C459.215 -127.593 409.382 -106.093 400.215 -94.0934C372.715 -130.593 336.215 -102.76 321.215 -85.5934C274.815 -85.5934 273.882 -51.2601 279.215 -34.0934Z" fill="white" stroke="white" stroke-width="5"/>
<path d="M918.215 -34.0934C883.415 -6.09341 903.715 27.9066 918.215 41.4066C918.215 77.8066 986.215 85.9066 1001.21 54.9066C1018.41 80.1066 1059.71 81.4066 1072.21 49.9066C1098.21 77.9066 1143.21 65.4066 1135.21 31.4066C1178.21 17.4066 1164.38 -7.26007 1153.71 -23.0934C1168.91 -65.4934 1130.71 -81.5934 1111.21 -81.0934C1098.21 -127.593 1048.38 -106.093 1039.21 -94.0934C1011.71 -130.593 975.215 -102.76 960.215 -85.5934C913.815 -85.5934 912.882 -51.2601 918.215 -34.0934Z" fill="white" stroke="white" stroke-width="5"/>
<path d="M-132.785 215.907C-167.585 243.907 -147.285 277.907 -132.785 291.407C-132.785 327.807 -64.7851 335.907 -49.7851 304.907C-32.5851 330.107 8.7149 331.407 21.2149 299.907C47.2149 327.907 92.2149 315.407 84.2149 281.407C127.215 267.407 113.382 242.74 102.715 226.907C117.915 184.507 79.7149 168.407 60.2149 168.907C47.2149 122.407 -2.61842 143.907 -11.7851 155.907C-39.2851 119.407 -75.7851 147.24 -90.7851 164.407C-137.185 164.407 -138.118 198.74 -132.785 215.907Z" fill="white" stroke="white" stroke-width="5"/>
</svg>
