<svg width="193" height="148" viewBox="0 0 193 148" fill="none" xmlns="http://www.w3.org/2000/svg">
<path d="M127.366 90.4935L70.5473 92.8801L145.594 12.0784L127.366 90.4935Z" fill="#868080" stroke="#ABA8A8" stroke-width="3"/>
<path d="M152.698 46.4235L161.035 38.0865L181.809 57.5258L152.698 46.4235Z" fill="#868080" stroke="#ABA8A8" stroke-width="3"/>
<path d="M159.64 37.5546C160.893 36.361 162.837 37.886 161.976 39.3869L119.454 113.519C118.999 114.312 117.947 114.517 117.227 113.952L97.8787 98.7756C97.1593 98.2113 97.1078 97.1401 97.7697 96.5094L159.64 37.5546Z" fill="#868080" stroke="#ABA8A8" stroke-width="3"/>
<path d="M83.5542 116.192L21.6268 37.0147L108.051 88.3458L83.5542 116.192Z" fill="#868080" stroke="#ABA8A8" stroke-width="3"/>
<path d="M74.6262 90.2113L100.669 55.3851L124.716 91.6177L74.6262 90.2113Z" fill="#868080" stroke="#ABA8A8" stroke-width="3"/>
<path d="M71.5072 93.4765L26.3457 56.487L120.97 91.3259L71.5072 93.4765Z" fill="#868080" stroke="#ABA8A8" stroke-width="3"/>
</svg>
