<svg width="399" height="148" viewBox="0 0 399 148" fill="none" xmlns="http://www.w3.org/2000/svg">
<path d="M28.8626 45.6365C-23.4104 62.0385 7.08221 81.9552 28.8626 89.8633C28.8626 111.186 131.005 115.931 153.537 97.7714C179.373 112.533 241.409 113.295 260.186 94.8424C299.24 111.244 366.835 103.922 354.818 84.0054C419.408 75.8044 398.629 61.3551 382.607 52.0801C405.438 27.2429 348.058 17.8117 318.767 18.1046C299.24 -9.13439 224.386 3.46 210.616 10.4894C169.309 -10.8917 114.482 5.41263 91.9507 15.4686C22.2534 15.4686 20.8514 35.5805 28.8626 45.6365Z" fill="white" fill-opacity="0.4"/>
<path d="M50.85 70.8C48.6167 70.8 46.5667 70.3 44.7 69.3C42.8333 68.3 41.3333 66.85 40.2 64.95C39.1 63.05 38.55 60.75 38.55 58.05C38.55 55.5167 39.1 53.2167 40.2 51.15C41.3 49.05 42.8167 47.3667 44.75 46.1C46.7167 44.8333 48.9833 44.2 51.55 44.2C53.6833 44.2 55.45 44.5333 56.85 45.2C58.2833 45.8333 59.35 46.6833 60.05 47.75C60.7833 48.7833 61.15 49.8833 61.15 51.05C61.15 52.0167 60.85 52.8833 60.25 53.65C59.6833 54.3833 58.8667 54.7667 57.8 54.8C56.5333 54.8333 55.65 54.4833 55.15 53.75C54.65 52.9833 54.4 52.25 54.4 51.55C54.4 51.25 54.45 50.9 54.55 50.5C54.65 50.0667 54.8 49.6833 55 49.35C54.6333 48.6167 54.05 48.15 53.25 47.95C52.45 47.75 51.8167 47.6667 51.35 47.7C49.75 47.8 48.4333 48.6 47.4 50.1C46.3667 51.6 45.85 53.7667 45.85 56.6C45.85 58.2667 46.05 59.8333 46.45 61.3C46.8833 62.7333 47.5833 63.9167 48.55 64.85C49.5167 65.7833 50.8167 66.2833 52.45 66.35C53.85 66.3833 55.2167 66.05 56.55 65.35C57.8833 64.65 59.0167 63.7 59.95 62.5L62.25 64.75C61.05 66.4167 59.8 67.6833 58.5 68.55C57.2 69.4167 55.9 70 54.6 70.3C53.3333 70.6333 52.0833 70.8 50.85 70.8ZM64.9289 66.75C66.2956 66.75 67.1289 66.35 67.4289 65.55C67.7289 64.7167 67.8789 63.6333 67.8789 62.3V53.9C67.8789 53.3 67.8956 52.6333 67.9289 51.9C67.9622 51.1333 68.0122 50.3833 68.0789 49.65C67.5456 49.6833 66.9122 49.7167 66.1789 49.75C65.4789 49.75 64.9456 49.7667 64.5789 49.8V46H66.5789C67.8789 46 69.0622 45.8333 70.1289 45.5C71.2289 45.1667 71.9456 44.8333 72.2789 44.5H74.7289C74.7956 44.8333 74.8456 45.4667 74.8789 46.4C74.9122 47.3 74.9289 48.1 74.9289 48.8C76.2622 47.1333 77.5122 45.95 78.6789 45.25C79.8456 44.55 81.0289 44.2 82.2289 44.2C83.3956 44.2 84.4122 44.5333 85.2789 45.2C86.1456 45.8333 86.5789 46.8833 86.5789 48.35C86.5789 48.85 86.4622 49.3833 86.2289 49.95C85.9956 50.4833 85.6289 50.9333 85.1289 51.3C84.6289 51.6667 83.9456 51.85 83.0789 51.85C82.4122 51.85 81.7289 51.65 81.0289 51.25C80.3289 50.85 79.9289 50.0833 79.8289 48.95C79.1622 48.95 78.4956 49.2333 77.8289 49.8C77.1622 50.3333 76.5622 50.9833 76.0289 51.75C75.5289 52.4833 75.1789 53.1667 74.9789 53.8V61.95C74.9789 62.4167 74.9622 63.0833 74.9289 63.95C74.8956 64.7833 74.8456 65.5833 74.7789 66.35C75.3122 66.2833 75.8956 66.25 76.5289 66.25C77.1956 66.2167 77.6956 66.2 78.0289 66.2V70H64.9289V66.75ZM100.812 70.8C98.4117 70.8 96.2451 70.2833 94.3117 69.25C92.3784 68.2167 90.8451 66.75 89.7117 64.85C88.6117 62.9167 88.0617 60.65 88.0617 58.05C88.0617 55.2833 88.6284 52.8667 89.7617 50.8C90.9284 48.7 92.4617 47.0833 94.3617 45.95C96.2951 44.7833 98.3951 44.2 100.662 44.2C103.062 44.2 105.212 44.7167 107.112 45.75C109.012 46.7833 110.512 48.2667 111.612 50.2C112.712 52.1 113.262 54.3833 113.262 57.05C113.262 59.85 112.728 62.2833 111.662 64.35C110.595 66.4167 109.128 68.0167 107.262 69.15C105.395 70.25 103.245 70.8 100.812 70.8ZM101.012 67.25C102.345 67.2167 103.345 66.75 104.012 65.85C104.712 64.95 105.195 63.8167 105.462 62.45C105.728 61.0833 105.862 59.7 105.862 58.3C105.862 57.0667 105.762 55.8167 105.562 54.55C105.395 53.2833 105.112 52.1333 104.712 51.1C104.312 50.0667 103.762 49.2333 103.062 48.6C102.395 47.9667 101.562 47.6667 100.562 47.7C99.2617 47.7333 98.2284 48.2 97.4617 49.1C96.7284 50 96.1951 51.1333 95.8617 52.5C95.5617 53.8333 95.4117 55.2333 95.4117 56.7C95.4117 58.4 95.5951 60.0667 95.9617 61.7C96.3284 63.3333 96.9117 64.6833 97.7117 65.75C98.5451 66.7833 99.6451 67.2833 101.012 67.25ZM128.682 70.8C126.449 70.8 124.399 70.3 122.532 69.3C120.665 68.3 119.165 66.85 118.032 64.95C116.932 63.05 116.382 60.75 116.382 58.05C116.382 55.5167 116.932 53.2167 118.032 51.15C119.132 49.05 120.649 47.3667 122.582 46.1C124.549 44.8333 126.815 44.2 129.382 44.2C131.515 44.2 133.282 44.5333 134.682 45.2C136.115 45.8333 137.182 46.6833 137.882 47.75C138.615 48.7833 138.982 49.8833 138.982 51.05C138.982 52.0167 138.682 52.8833 138.082 53.65C137.515 54.3833 136.699 54.7667 135.632 54.8C134.365 54.8333 133.482 54.4833 132.982 53.75C132.482 52.9833 132.232 52.25 132.232 51.55C132.232 51.25 132.282 50.9 132.382 50.5C132.482 50.0667 132.632 49.6833 132.832 49.35C132.465 48.6167 131.882 48.15 131.082 47.95C130.282 47.75 129.649 47.6667 129.182 47.7C127.582 47.8 126.265 48.6 125.232 50.1C124.199 51.6 123.682 53.7667 123.682 56.6C123.682 58.2667 123.882 59.8333 124.282 61.3C124.715 62.7333 125.415 63.9167 126.382 64.85C127.349 65.7833 128.649 66.2833 130.282 66.35C131.682 66.3833 133.049 66.05 134.382 65.35C135.715 64.65 136.849 63.7 137.782 62.5L140.082 64.75C138.882 66.4167 137.632 67.6833 136.332 68.55C135.032 69.4167 133.732 70 132.432 70.3C131.165 70.6333 129.915 70.8 128.682 70.8ZM157.661 66.75C159.061 66.75 159.911 66.35 160.211 65.55C160.511 64.7167 160.661 63.6333 160.661 62.3L160.611 55.2C160.611 50.9333 159.261 48.8 156.561 48.8C155.728 48.8 154.894 48.9833 154.061 49.35C153.261 49.7167 152.578 50.15 152.011 50.65V61.95C152.011 62.4167 151.994 63.0833 151.961 63.95C151.928 64.7833 151.878 65.5833 151.811 66.35C152.378 66.2833 152.978 66.25 153.611 66.25C154.244 66.2167 154.728 66.2 155.061 66.2V70H141.961V66.75C143.361 66.75 144.194 66.35 144.461 65.55C144.761 64.7167 144.911 63.6333 144.911 62.3V41.75C144.911 41.15 144.928 40.4667 144.961 39.7C144.994 38.9 145.044 38.1333 145.111 37.4C144.578 37.4333 143.944 37.4667 143.211 37.5C142.511 37.5 141.978 37.5167 141.611 37.55V33.75C143.944 33.75 145.728 33.5833 146.961 33.25C148.194 32.9167 148.978 32.5833 149.311 32.25H152.011V47C152.678 46.4667 153.444 46 154.311 45.6C155.178 45.1667 156.061 44.8333 156.961 44.6C157.861 44.3333 158.644 44.2 159.311 44.2C162.378 44.2 164.544 45.0833 165.811 46.85C167.078 48.5833 167.728 51.3833 167.761 55.25V61.95C167.761 62.4167 167.744 63.0833 167.711 63.95C167.678 64.7833 167.628 65.5833 167.561 66.35C168.094 66.2833 168.678 66.25 169.311 66.25C169.944 66.2167 170.444 66.2 170.811 66.2V70H157.661V66.75ZM185.666 70.8C183.232 70.8 181.082 70.2667 179.216 69.2C177.349 68.1 175.899 66.5667 174.866 64.6C173.832 62.6 173.316 60.25 173.316 57.55C173.316 55.2167 173.832 53.0333 174.866 51C175.899 48.9667 177.349 47.3333 179.216 46.1C181.116 44.8333 183.316 44.2 185.816 44.2C187.216 44.2 188.582 44.4 189.916 44.8C191.249 45.1667 192.449 45.8167 193.516 46.75C194.616 47.6833 195.482 48.95 196.116 50.55C196.782 52.15 197.099 54.15 197.066 56.55L180.666 56.85C180.666 58.65 180.882 60.2667 181.316 61.7C181.782 63.1333 182.532 64.2667 183.566 65.1C184.599 65.9333 185.982 66.35 187.716 66.35C188.716 66.35 189.899 66.0833 191.266 65.55C192.666 64.9833 193.932 64 195.066 62.6L197.316 64.7C196.116 66.4 194.832 67.7 193.466 68.6C192.099 69.4667 190.732 70.05 189.366 70.35C188.032 70.65 186.799 70.8 185.666 70.8ZM180.966 53.35H190.166C190.132 51.2833 189.732 49.8333 188.966 49C188.199 48.1333 187.232 47.7 186.066 47.7C184.599 47.7 183.449 48.2333 182.616 49.3C181.782 50.3333 181.232 51.6833 180.966 53.35ZM210.62 70.8C209.62 70.8 208.653 70.6833 207.72 70.45C206.82 70.2167 205.987 69.7833 205.22 69.15C204.487 68.4833 203.903 67.5167 203.47 66.25C203.037 64.9833 202.82 63.3 202.82 61.2L202.92 49.15H199.52V45C200.553 44.9667 201.553 44.6167 202.52 43.95C203.487 43.2833 204.303 42.4167 204.97 41.35C205.67 40.2833 206.137 39.1667 206.37 38H210.07L210.02 45H216.37V48.85L210.02 49L209.97 61.3C209.97 62.0667 210.037 62.8333 210.17 63.6C210.337 64.3333 210.637 64.95 211.07 65.45C211.503 65.9167 212.137 66.15 212.97 66.15C213.437 66.15 214.07 65.9833 214.87 65.65C215.703 65.3167 216.587 64.4833 217.52 63.15L219.92 65.4C219.02 66.7333 218.087 67.7667 217.12 68.5C216.153 69.2333 215.22 69.7667 214.32 70.1C213.453 70.4333 212.687 70.6333 212.02 70.7C211.353 70.7667 210.887 70.8 210.62 70.8ZM221.374 66.75C222.741 66.75 223.574 66.35 223.874 65.55C224.174 64.7167 224.324 63.6333 224.324 62.3V54C224.324 53.4 224.341 52.7167 224.374 51.95C224.408 51.15 224.458 50.3833 224.524 49.65C223.991 49.6833 223.358 49.7167 222.624 49.75C221.924 49.75 221.391 49.7667 221.024 49.8V46C223.324 46 225.091 45.8333 226.324 45.5C227.591 45.1667 228.391 44.8333 228.724 44.5H231.424V61.95C231.424 62.4167 231.408 63.0833 231.374 63.95C231.341 64.7833 231.291 65.5833 231.224 66.35C231.758 66.2833 232.341 66.25 232.974 66.25C233.641 66.2167 234.141 66.2 234.474 66.2V70H221.374V66.75ZM227.624 40.55C226.491 40.55 225.558 40.15 224.824 39.35C224.091 38.55 223.724 37.5833 223.724 36.45C223.724 35.3167 224.108 34.35 224.874 33.55C225.641 32.75 226.541 32.35 227.574 32.35C228.641 32.35 229.524 32.75 230.224 33.55C230.958 34.35 231.324 35.3167 231.324 36.45C231.324 37.5833 230.991 38.55 230.324 39.35C229.658 40.15 228.758 40.55 227.624 40.55ZM237.732 70V66.75C239.098 66.75 239.932 66.35 240.232 65.55C240.532 64.7167 240.682 63.6333 240.682 62.3V53.9C240.682 53.3 240.698 52.6333 240.732 51.9C240.765 51.1333 240.815 50.3833 240.882 49.65C240.348 49.6833 239.715 49.7167 238.982 49.75C238.282 49.75 237.748 49.7667 237.382 49.8V46C239.682 46 241.448 45.8333 242.682 45.5C243.948 45.1667 244.748 44.8333 245.082 44.5H247.532C247.598 44.9333 247.632 45.25 247.632 45.45C247.632 45.65 247.632 45.85 247.632 46.05C247.665 46.2167 247.732 46.5333 247.832 47C248.498 46.4667 249.265 46 250.132 45.6C250.998 45.1667 251.865 44.8333 252.732 44.6C253.598 44.3333 254.365 44.2 255.032 44.2C258.098 44.2 260.265 45.0833 261.532 46.85C262.832 48.5833 263.482 51.3833 263.482 55.25V61.95C263.482 62.4167 263.465 63.0833 263.432 63.95C263.398 64.7833 263.348 65.5833 263.282 66.35C263.848 66.2833 264.448 66.25 265.082 66.25C265.715 66.2167 266.198 66.2 266.532 66.2V70H253.432V66.75C254.832 66.75 255.682 66.35 255.982 65.55C256.282 64.7167 256.432 63.6333 256.432 62.3L256.382 55.2C256.382 53.0333 256.065 51.4333 255.432 50.4C254.832 49.3333 253.798 48.8 252.332 48.8C251.498 48.8 250.665 48.9833 249.832 49.35C249.032 49.7167 248.348 50.15 247.782 50.65V61.95C247.782 62.4167 247.765 63.0833 247.732 63.95C247.698 64.7833 247.648 65.5833 247.582 66.35C248.115 66.2833 248.698 66.25 249.332 66.25C249.998 66.2167 250.498 66.2 250.832 66.2V70H237.732ZM280.269 83.55C277.402 83.55 275.135 83.2333 273.469 82.6C271.802 82 270.619 81.2 269.919 80.2C269.219 79.2 268.869 78.1333 268.869 77C268.869 75.9667 269.202 74.9167 269.869 73.85C270.569 72.7833 271.819 71.9167 273.619 71.25C272.252 70.8833 271.285 70.3 270.719 69.5C270.185 68.6667 269.919 67.7833 269.919 66.85C269.919 65.9833 270.269 65.0167 270.969 63.95C271.669 62.85 272.935 62.0167 274.769 61.45C273.369 60.8833 272.219 60 271.319 58.8C270.419 57.6 269.935 56.15 269.869 54.45C269.802 52.45 270.302 50.6833 271.369 49.15C272.435 47.5833 273.835 46.3667 275.569 45.5C277.302 44.6333 279.119 44.2 281.019 44.2C281.885 44.2 282.885 44.3167 284.019 44.55C285.152 44.7833 286.135 45.1833 286.969 45.75C287.335 44.7167 287.802 43.75 288.369 42.85C288.969 41.9167 289.685 41.1667 290.519 40.6C291.352 40 292.285 39.7 293.319 39.7C294.452 39.7 295.302 40 295.869 40.6C296.469 41.1667 296.769 41.9333 296.769 42.9C296.769 43.3 296.669 43.75 296.469 44.25C296.302 44.7167 295.985 45.1167 295.519 45.45C295.085 45.7833 294.469 45.95 293.669 45.95C293.169 45.95 292.669 45.7667 292.169 45.4C291.669 45 291.369 44.5333 291.269 44C290.835 44.1333 290.402 44.5667 289.969 45.3C289.535 46.0333 289.285 46.6833 289.219 47.25C291.185 48.95 292.169 51.1 292.169 53.7C292.169 55.6333 291.619 57.35 290.519 58.85C289.452 60.3167 288.052 61.4833 286.319 62.35C284.619 63.1833 282.785 63.6 280.819 63.6C280.385 63.6 279.902 63.5833 279.369 63.55C278.835 63.4833 278.319 63.45 277.819 63.45C277.085 63.45 276.469 63.5833 275.969 63.85C275.469 64.1167 275.219 64.4833 275.219 64.95C275.219 65.5833 275.702 66.0167 276.669 66.25C277.635 66.4833 279.285 66.6667 281.619 66.8C284.185 66.9333 286.419 67.2667 288.319 67.8C290.252 68.3 291.752 69.1 292.819 70.2C293.885 71.3 294.419 72.8167 294.419 74.75C294.419 76.1833 294.002 77.4333 293.169 78.5C292.335 79.6 291.219 80.5167 289.819 81.25C288.452 82.0167 286.935 82.5833 285.269 82.95C283.602 83.35 281.935 83.55 280.269 83.55ZM281.019 60.25C281.919 60.25 282.669 59.9667 283.269 59.4C283.902 58.8333 284.369 58.1167 284.669 57.25C285.002 56.3833 285.169 55.5 285.169 54.6C285.169 53.4333 285.019 52.3167 284.719 51.25C284.419 50.15 283.952 49.2667 283.319 48.6C282.719 47.9 281.935 47.55 280.969 47.55C279.635 47.55 278.602 48.15 277.869 49.35C277.135 50.55 276.769 51.9167 276.769 53.45C276.769 54.6167 276.935 55.7333 277.269 56.8C277.602 57.8333 278.085 58.6667 278.719 59.3C279.352 59.9333 280.119 60.25 281.019 60.25ZM281.719 80.1C284.085 80.1 285.869 79.6667 287.069 78.8C288.302 77.9333 288.919 77.0333 288.919 76.1C288.919 74.1 286.519 73 281.719 72.8C280.985 72.7333 280.135 72.6833 279.169 72.65C278.202 72.6167 277.352 72.5333 276.619 72.4C276.119 72.8 275.735 73.3 275.469 73.9C275.202 74.5 275.052 75.0833 275.019 75.65C274.952 76.9833 275.519 78.05 276.719 78.85C277.952 79.6833 279.619 80.1 281.719 80.1ZM311.586 83.55L311.486 32H318.386L318.186 83.55H311.586ZM324.525 83.55L324.425 32H331.325L331.125 83.55H324.525Z" fill="#3C3A3A"/>
</svg>
