<svg width="678" height="186" viewBox="0 0 678 186" fill="none" xmlns="http://www.w3.org/2000/svg">
<path d="M24.0883 54.0102C-19.538 73.4217 5.91071 96.9928 24.0883 106.352C24.0883 131.587 109.335 137.202 128.14 115.711C149.702 133.181 201.477 134.083 217.147 112.245C249.742 131.656 306.155 122.99 296.126 99.4192C350.032 89.7135 332.69 72.6129 319.318 61.6361C338.373 32.2415 290.485 21.0799 266.039 21.4266C249.742 -10.8104 187.269 4.09486 175.778 12.4141C141.303 -12.8902 95.5453 6.40577 76.7408 18.3069C18.5724 18.3069 17.4023 42.1091 24.0883 54.0102Z" fill="#DDEBEB"/>
<path d="M61.3 93.8C58.9 93.8 56.7333 93.2833 54.8 92.25C52.8667 91.2167 51.3333 89.75 50.2 87.85C49.1 85.9167 48.55 83.65 48.55 81.05C48.55 78.2833 49.1167 75.8667 50.25 73.8C51.4167 71.7 52.95 70.0833 54.85 68.95C56.7833 67.7833 58.8833 67.2 61.15 67.2C63.55 67.2 65.7 67.7167 67.6 68.75C69.5 69.7833 71 71.2667 72.1 73.2C73.2 75.1 73.75 77.3833 73.75 80.05C73.75 82.85 73.2167 85.2833 72.15 87.35C71.0833 89.4167 69.6167 91.0167 67.75 92.15C65.8833 93.25 63.7333 93.8 61.3 93.8ZM61.5 90.25C62.8333 90.2167 63.8333 89.75 64.5 88.85C65.2 87.95 65.6833 86.8167 65.95 85.45C66.2167 84.0833 66.35 82.7 66.35 81.3C66.35 80.0667 66.25 78.8167 66.05 77.55C65.8833 76.2833 65.6 75.1333 65.2 74.1C64.8 73.0667 64.25 72.2333 63.55 71.6C62.8833 70.9667 62.05 70.6667 61.05 70.7C59.75 70.7333 58.7167 71.2 57.95 72.1C57.2167 73 56.6833 74.1333 56.35 75.5C56.05 76.8333 55.9 78.2333 55.9 79.7C55.9 81.4 56.0833 83.0667 56.45 84.7C56.8167 86.3333 57.4 87.6833 58.2 88.75C59.0333 89.7833 60.1333 90.2833 61.5 90.25ZM77.3703 89.75C78.737 89.75 79.5703 89.35 79.8703 88.55C80.1703 87.7167 80.3203 86.6333 80.3203 85.3V76.9C80.3203 76.3 80.337 75.6333 80.3703 74.9C80.4036 74.1333 80.4536 73.3833 80.5203 72.65C79.987 72.6833 79.3536 72.7167 78.6203 72.75C77.9203 72.75 77.387 72.7667 77.0203 72.8V69H79.0203C80.3203 69 81.5036 68.8333 82.5703 68.5C83.6703 68.1667 84.387 67.8333 84.7203 67.5H87.1703C87.237 67.8333 87.287 68.4667 87.3203 69.4C87.3536 70.3 87.3703 71.1 87.3703 71.8C88.7036 70.1333 89.9536 68.95 91.1203 68.25C92.287 67.55 93.4703 67.2 94.6703 67.2C95.837 67.2 96.8536 67.5333 97.7203 68.2C98.587 68.8333 99.0203 69.8833 99.0203 71.35C99.0203 71.85 98.9036 72.3833 98.6703 72.95C98.437 73.4833 98.0703 73.9333 97.5703 74.3C97.0703 74.6667 96.387 74.85 95.5203 74.85C94.8536 74.85 94.1703 74.65 93.4703 74.25C92.7703 73.85 92.3703 73.0833 92.2703 71.95C91.6036 71.95 90.937 72.2333 90.2703 72.8C89.6036 73.3333 89.0036 73.9833 88.4703 74.75C87.9703 75.4833 87.6203 76.1667 87.4203 76.8V84.95C87.4203 85.4167 87.4036 86.0833 87.3703 86.95C87.337 87.7833 87.287 88.5833 87.2203 89.35C87.7536 89.2833 88.337 89.25 88.9703 89.25C89.637 89.2167 90.137 89.2 90.4703 89.2V93H77.3703V89.75ZM101.394 89.75C102.76 89.75 103.594 89.35 103.894 88.55C104.194 87.7167 104.344 86.6333 104.344 85.3V77C104.344 76.4 104.36 75.7167 104.394 74.95C104.427 74.15 104.477 73.3833 104.544 72.65C104.01 72.6833 103.377 72.7167 102.644 72.75C101.944 72.75 101.41 72.7667 101.044 72.8V69C103.344 69 105.11 68.8333 106.344 68.5C107.61 68.1667 108.41 67.8333 108.744 67.5H111.444V84.95C111.444 85.4167 111.427 86.0833 111.394 86.95C111.36 87.7833 111.31 88.5833 111.244 89.35C111.777 89.2833 112.36 89.25 112.994 89.25C113.66 89.2167 114.16 89.2 114.494 89.2V93H101.394V89.75ZM107.644 63.55C106.51 63.55 105.577 63.15 104.844 62.35C104.11 61.55 103.744 60.5833 103.744 59.45C103.744 58.3167 104.127 57.35 104.894 56.55C105.66 55.75 106.56 55.35 107.594 55.35C108.66 55.35 109.544 55.75 110.244 56.55C110.977 57.35 111.344 58.3167 111.344 59.45C111.344 60.5833 111.01 61.55 110.344 62.35C109.677 63.15 108.777 63.55 107.644 63.55ZM128.501 106.55C125.635 106.55 123.368 106.233 121.701 105.6C120.035 105 118.851 104.2 118.151 103.2C117.451 102.2 117.101 101.133 117.101 100C117.101 98.9667 117.435 97.9167 118.101 96.85C118.801 95.7833 120.051 94.9167 121.851 94.25C120.485 93.8833 119.518 93.3 118.951 92.5C118.418 91.6667 118.151 90.7833 118.151 89.85C118.151 88.9833 118.501 88.0167 119.201 86.95C119.901 85.85 121.168 85.0167 123.001 84.45C121.601 83.8833 120.451 83 119.551 81.8C118.651 80.6 118.168 79.15 118.101 77.45C118.035 75.45 118.535 73.6833 119.601 72.15C120.668 70.5833 122.068 69.3667 123.801 68.5C125.535 67.6333 127.351 67.2 129.251 67.2C130.118 67.2 131.118 67.3167 132.251 67.55C133.385 67.7833 134.368 68.1833 135.201 68.75C135.568 67.7167 136.035 66.75 136.601 65.85C137.201 64.9167 137.918 64.1667 138.751 63.6C139.585 63 140.518 62.7 141.551 62.7C142.685 62.7 143.535 63 144.101 63.6C144.701 64.1667 145.001 64.9333 145.001 65.9C145.001 66.3 144.901 66.75 144.701 67.25C144.535 67.7167 144.218 68.1167 143.751 68.45C143.318 68.7833 142.701 68.95 141.901 68.95C141.401 68.95 140.901 68.7667 140.401 68.4C139.901 68 139.601 67.5333 139.501 67C139.068 67.1333 138.635 67.5667 138.201 68.3C137.768 69.0333 137.518 69.6833 137.451 70.25C139.418 71.95 140.401 74.1 140.401 76.7C140.401 78.6333 139.851 80.35 138.751 81.85C137.685 83.3167 136.285 84.4833 134.551 85.35C132.851 86.1833 131.018 86.6 129.051 86.6C128.618 86.6 128.135 86.5833 127.601 86.55C127.068 86.4833 126.551 86.45 126.051 86.45C125.318 86.45 124.701 86.5833 124.201 86.85C123.701 87.1167 123.451 87.4833 123.451 87.95C123.451 88.5833 123.935 89.0167 124.901 89.25C125.868 89.4833 127.518 89.6667 129.851 89.8C132.418 89.9333 134.651 90.2667 136.551 90.8C138.485 91.3 139.985 92.1 141.051 93.2C142.118 94.3 142.651 95.8167 142.651 97.75C142.651 99.1833 142.235 100.433 141.401 101.5C140.568 102.6 139.451 103.517 138.051 104.25C136.685 105.017 135.168 105.583 133.501 105.95C131.835 106.35 130.168 106.55 128.501 106.55ZM129.251 83.25C130.151 83.25 130.901 82.9667 131.501 82.4C132.135 81.8333 132.601 81.1167 132.901 80.25C133.235 79.3833 133.401 78.5 133.401 77.6C133.401 76.4333 133.251 75.3167 132.951 74.25C132.651 73.15 132.185 72.2667 131.551 71.6C130.951 70.9 130.168 70.55 129.201 70.55C127.868 70.55 126.835 71.15 126.101 72.35C125.368 73.55 125.001 74.9167 125.001 76.45C125.001 77.6167 125.168 78.7333 125.501 79.8C125.835 80.8333 126.318 81.6667 126.951 82.3C127.585 82.9333 128.351 83.25 129.251 83.25ZM129.951 103.1C132.318 103.1 134.101 102.667 135.301 101.8C136.535 100.933 137.151 100.033 137.151 99.1C137.151 97.1 134.751 96 129.951 95.8C129.218 95.7333 128.368 95.6833 127.401 95.65C126.435 95.6167 125.585 95.5333 124.851 95.4C124.351 95.8 123.968 96.3 123.701 96.9C123.435 97.5 123.285 98.0833 123.251 98.65C123.185 99.9833 123.751 101.05 124.951 101.85C126.185 102.683 127.851 103.1 129.951 103.1ZM159.19 93C159.124 92.5333 159.074 92.15 159.04 91.85C159.04 91.5167 159.024 91.1333 158.99 90.7C157.857 91.8333 156.657 92.6333 155.39 93.1C154.124 93.5667 152.84 93.8 151.54 93.8C149.407 93.8 147.74 93.1667 146.54 91.9C145.34 90.6333 144.74 89.05 144.74 87.15C144.74 85.55 145.14 84.1833 145.94 83.05C146.774 81.9167 147.857 81 149.19 80.3C150.557 79.5667 152.057 79.0167 153.69 78.65C155.357 78.25 157.024 78.0167 158.69 77.95V75.35C158.69 74.05 158.424 72.95 157.89 72.05C157.39 71.15 156.457 70.7333 155.09 70.8C153.69 70.8667 152.557 71.3333 151.69 72.2C151.957 72.5 152.124 72.8333 152.19 73.2C152.257 73.5333 152.29 73.8333 152.29 74.1C152.29 74.7667 152.024 75.4667 151.49 76.2C150.957 76.9 150.107 77.2333 148.94 77.2C147.94 77.1667 147.174 76.8167 146.64 76.15C146.107 75.4833 145.84 74.7 145.84 73.8C145.84 72.4667 146.307 71.3167 147.24 70.35C148.207 69.35 149.49 68.5833 151.09 68.05C152.69 67.4833 154.457 67.2 156.39 67.2C159.324 67.2 161.59 67.9667 163.19 69.5C164.824 71 165.64 73.4167 165.64 76.75C165.64 77.8833 165.64 78.85 165.64 79.65C165.64 80.45 165.624 81.25 165.59 82.05C165.59 82.85 165.59 83.8167 165.59 84.95C165.59 85.4167 165.574 86.0833 165.54 86.95C165.507 87.7833 165.457 88.5833 165.39 89.35C165.957 89.2833 166.557 89.25 167.19 89.25C167.824 89.2167 168.307 89.2 168.64 89.2V93H159.19ZM158.64 81.5C156.774 81.6667 155.157 82.15 153.79 82.95C152.457 83.75 151.807 84.8667 151.84 86.3C151.874 87.2333 152.174 87.9 152.74 88.3C153.307 88.7 153.957 88.9 154.69 88.9C155.457 88.9 156.174 88.7333 156.84 88.4C157.507 88.0667 158.107 87.6333 158.64 87.1V81.5ZM171.511 93V89.75C172.878 89.75 173.711 89.35 174.011 88.55C174.311 87.7167 174.461 86.6333 174.461 85.3V76.9C174.461 76.3 174.478 75.6333 174.511 74.9C174.544 74.1333 174.594 73.3833 174.661 72.65C174.128 72.6833 173.494 72.7167 172.761 72.75C172.061 72.75 171.528 72.7667 171.161 72.8V69C173.461 69 175.228 68.8333 176.461 68.5C177.728 68.1667 178.528 67.8333 178.861 67.5H181.311C181.378 67.8333 181.411 68.25 181.411 68.75C181.444 69.25 181.478 69.6667 181.511 70C182.644 69.1333 183.861 68.45 185.161 67.95C186.494 67.45 187.744 67.2 188.911 67.2C190.444 67.2 191.711 67.4833 192.711 68.05C193.711 68.5833 194.511 69.4 195.111 70.5C196.311 69.5 197.628 68.7 199.061 68.1C200.528 67.5 201.928 67.2 203.261 67.2C205.961 67.2 207.994 67.9833 209.361 69.55C210.761 71.0833 211.461 73.7667 211.461 77.6V84.95C211.461 85.4167 211.444 86.0833 211.411 86.95C211.378 87.7833 211.328 88.5833 211.261 89.35C211.794 89.2833 212.378 89.25 213.011 89.25C213.678 89.2167 214.178 89.2 214.511 89.2V93H201.861V89.75C203.028 89.75 203.728 89.35 203.961 88.55C204.228 87.7167 204.361 86.6333 204.361 85.3V77.65C204.328 75.4833 203.961 73.9833 203.261 73.15C202.594 72.3167 201.694 71.8833 200.561 71.85C199.694 71.8167 198.878 71.9667 198.111 72.3C197.378 72.6333 196.711 73.0333 196.111 73.5C196.411 74.8333 196.561 76.4167 196.561 78.25V84.95C196.561 85.4167 196.544 86.0833 196.511 86.95C196.478 87.7833 196.428 88.5833 196.361 89.35C196.894 89.2833 197.478 89.25 198.111 89.25C198.744 89.2167 199.244 89.2 199.611 89.2V93H186.711V89.75C187.978 89.75 188.744 89.35 189.011 88.55C189.311 87.7167 189.461 86.6333 189.461 85.3L189.411 77.5C189.411 75.3333 189.094 73.85 188.461 73.05C187.828 72.25 186.944 71.8333 185.811 71.8C184.978 71.8 184.194 71.9833 183.461 72.35C182.761 72.7167 182.128 73.15 181.561 73.65V84.95C181.561 85.4167 181.544 86.0833 181.511 86.95C181.478 87.7833 181.428 88.5833 181.361 89.35C181.894 89.2833 182.444 89.25 183.011 89.25C183.578 89.2167 184.028 89.2 184.361 89.2V93H171.511ZM217.507 89.75C218.874 89.75 219.707 89.35 220.007 88.55C220.307 87.7167 220.457 86.6333 220.457 85.3V77C220.457 76.4 220.474 75.7167 220.507 74.95C220.54 74.15 220.59 73.3833 220.657 72.65C220.124 72.6833 219.49 72.7167 218.757 72.75C218.057 72.75 217.524 72.7667 217.157 72.8V69C219.457 69 221.224 68.8333 222.457 68.5C223.724 68.1667 224.524 67.8333 224.857 67.5H227.557V84.95C227.557 85.4167 227.54 86.0833 227.507 86.95C227.474 87.7833 227.424 88.5833 227.357 89.35C227.89 89.2833 228.474 89.25 229.107 89.25C229.774 89.2167 230.274 89.2 230.607 89.2V93H217.507V89.75ZM223.757 63.55C222.624 63.55 221.69 63.15 220.957 62.35C220.224 61.55 219.857 60.5833 219.857 59.45C219.857 58.3167 220.24 57.35 221.007 56.55C221.774 55.75 222.674 55.35 223.707 55.35C224.774 55.35 225.657 55.75 226.357 56.55C227.09 57.35 227.457 58.3167 227.457 59.45C227.457 60.5833 227.124 61.55 226.457 62.35C225.79 63.15 224.89 63.55 223.757 63.55ZM248.099 106.55L247.999 55H254.899L254.699 106.55H248.099ZM261.039 106.55L260.939 55H267.839L267.639 106.55H261.039Z" fill="#3C3A3A"/>
</svg>
