<svg width="677" height="181" viewBox="0 0 677 181" fill="none" xmlns="http://www.w3.org/2000/svg">
<path d="M21.7736 51.4981C-17.6605 70.0067 5.34272 92.4815 21.7736 101.405C21.7736 125.467 98.8285 130.821 115.826 110.329C135.316 126.987 182.116 127.846 196.28 107.024C225.743 125.533 276.735 117.27 267.67 94.7951C316.395 85.5407 300.72 69.2355 288.633 58.7693C305.857 30.7419 262.57 20.0995 240.474 20.43C225.743 -10.3076 169.273 3.9044 158.886 11.8367C127.724 -12.2907 86.3638 6.10783 69.3663 17.4554C16.7877 17.4554 15.73 40.1505 21.7736 51.4981Z" fill="#DDEBEB"/>
<path d="M59.55 88.8C58.1167 88.8 56.7167 88.6167 55.35 88.25C53.9833 87.8833 52.9167 87.4167 52.15 86.85L52.25 88.35H48.45L48.25 79.75H51.5C51.6667 81.2833 52.4667 82.5833 53.9 83.65C55.3333 84.6833 57.1167 85.2 59.25 85.2C60.0833 85.2 60.8667 85 61.6 84.6C62.3333 84.2 62.7 83.5667 62.7 82.7C62.6667 81.7333 62.15 81.0167 61.15 80.55C60.1833 80.0833 58.7667 79.4833 56.9 78.75C55.8667 78.35 54.8167 77.9333 53.75 77.5C52.7167 77.0667 51.75 76.55 50.85 75.95C49.9833 75.3167 49.2833 74.55 48.75 73.65C48.2167 72.7167 47.95 71.5833 47.95 70.25C47.95 68.95 48.2667 67.6833 48.9 66.45C49.5667 65.2167 50.6 64.2 52 63.4C53.4 62.6 55.1833 62.2 57.35 62.2C58.25 62.2 59.2667 62.35 60.4 62.65C61.5667 62.9167 62.55 63.3333 63.35 63.9V62.45H67.15V71.3H63.9C63.6 69.5667 62.8333 68.2 61.6 67.2C60.3667 66.2 58.85 65.7 57.05 65.7C56.2167 65.7 55.45 65.9 54.75 66.3C54.0833 66.7 53.75 67.3833 53.75 68.35C53.75 69.1167 54.0167 69.7333 54.55 70.2C55.0833 70.6333 55.8167 71 56.75 71.3C57.6833 71.6 58.7167 71.95 59.85 72.35C61.55 72.9167 63.05 73.5833 64.35 74.35C65.6833 75.1167 66.7333 76.05 67.5 77.15C68.2667 78.2167 68.65 79.5333 68.65 81.1C68.65 82.8333 68.2167 84.2667 67.35 85.4C66.4833 86.5333 65.35 87.3833 63.95 87.95C62.5833 88.5167 61.1167 88.8 59.55 88.8ZM84.1676 88.8C81.7342 88.8 79.5842 88.2667 77.7176 87.2C75.8509 86.1 74.4009 84.5667 73.3676 82.6C72.3342 80.6 71.8176 78.25 71.8176 75.55C71.8176 73.2167 72.3342 71.0333 73.3676 69C74.4009 66.9667 75.8509 65.3333 77.7176 64.1C79.6176 62.8333 81.8176 62.2 84.3176 62.2C85.7176 62.2 87.0842 62.4 88.4176 62.8C89.7509 63.1667 90.9509 63.8167 92.0176 64.75C93.1176 65.6833 93.9842 66.95 94.6176 68.55C95.2842 70.15 95.6009 72.15 95.5676 74.55L79.1676 74.85C79.1676 76.65 79.3842 78.2667 79.8176 79.7C80.2842 81.1333 81.0342 82.2667 82.0676 83.1C83.1009 83.9333 84.4842 84.35 86.2176 84.35C87.2176 84.35 88.4009 84.0833 89.7676 83.55C91.1676 82.9833 92.4342 82 93.5676 80.6L95.8176 82.7C94.6176 84.4 93.3342 85.7 91.9676 86.6C90.6009 87.4667 89.2342 88.05 87.8676 88.35C86.5342 88.65 85.3009 88.8 84.1676 88.8ZM79.4676 71.35H88.6676C88.6342 69.2833 88.2342 67.8333 87.4676 67C86.7009 66.1333 85.7342 65.7 84.5676 65.7C83.1009 65.7 81.9509 66.2333 81.1176 67.3C80.2842 68.3333 79.7342 69.6833 79.4676 71.35ZM106.822 88.15L100.772 70.8C100.472 69.9333 100.239 69.2833 100.072 68.85C99.9385 68.4167 99.8385 68.05 99.7719 67.75C99.7052 67.45 99.6219 67.1 99.5219 66.7L97.5719 66.8V63H109.572V66.2C108.539 66.2333 107.939 66.6333 107.772 67.4C107.605 68.1667 107.655 69.0667 107.922 70.1L109.622 76.2C109.822 76.9333 110.005 77.7167 110.172 78.55C110.372 79.35 110.539 80.15 110.672 80.95C110.839 80.25 111.005 79.4833 111.172 78.65C111.372 77.8167 111.655 76.7833 112.022 75.55L115.672 63H121.122L125.122 76.8C125.322 77.5 125.522 78.2667 125.722 79.1C125.955 79.9 126.155 80.6333 126.322 81.3C126.455 80.6333 126.639 79.9 126.872 79.1C127.105 78.3 127.322 77.5833 127.522 76.95L129.472 70.6C129.739 69.7 129.972 68.9667 130.172 68.4C130.372 67.8 130.622 67.2 130.922 66.6L128.072 66.8V63H137.572V66.2C136.905 66.2 136.322 66.4167 135.822 66.85C135.322 67.2833 134.872 67.8167 134.472 68.45C134.105 69.05 133.805 69.65 133.572 70.25C133.339 70.8167 133.172 71.2667 133.072 71.6L127.372 88.15H122.072L118.622 77.5C118.522 77.1333 118.355 76.6 118.122 75.9C117.922 75.2 117.705 74.45 117.472 73.65C117.272 72.8167 117.072 72.05 116.872 71.35C116.705 72.2833 116.455 73.35 116.122 74.55C115.789 75.75 115.472 76.85 115.172 77.85C114.872 78.85 114.655 79.5333 114.522 79.9L111.772 88.15H106.822ZM139.749 84.75C141.116 84.75 141.949 84.35 142.249 83.55C142.549 82.7167 142.699 81.6333 142.699 80.3V72C142.699 71.4 142.716 70.7167 142.749 69.95C142.783 69.15 142.833 68.3833 142.899 67.65C142.366 67.6833 141.733 67.7167 140.999 67.75C140.299 67.75 139.766 67.7667 139.399 67.8V64C141.699 64 143.466 63.8333 144.699 63.5C145.966 63.1667 146.766 62.8333 147.099 62.5H149.799V79.95C149.799 80.4167 149.783 81.0833 149.749 81.95C149.716 82.7833 149.666 83.5833 149.599 84.35C150.133 84.2833 150.716 84.25 151.349 84.25C152.016 84.2167 152.516 84.2 152.849 84.2V88H139.749V84.75ZM145.999 58.55C144.866 58.55 143.933 58.15 143.199 57.35C142.466 56.55 142.099 55.5833 142.099 54.45C142.099 53.3167 142.483 52.35 143.249 51.55C144.016 50.75 144.916 50.35 145.949 50.35C147.016 50.35 147.899 50.75 148.599 51.55C149.333 52.35 149.699 53.3167 149.699 54.45C149.699 55.5833 149.366 56.55 148.699 57.35C148.033 58.15 147.133 58.55 145.999 58.55ZM156.107 88V84.75C157.473 84.75 158.307 84.35 158.607 83.55C158.907 82.7167 159.057 81.6333 159.057 80.3V71.9C159.057 71.3 159.073 70.6333 159.107 69.9C159.14 69.1333 159.19 68.3833 159.257 67.65C158.723 67.6833 158.09 67.7167 157.357 67.75C156.657 67.75 156.123 67.7667 155.757 67.8V64C158.057 64 159.823 63.8333 161.057 63.5C162.323 63.1667 163.123 62.8333 163.457 62.5H165.907C165.973 62.9333 166.007 63.25 166.007 63.45C166.007 63.65 166.007 63.85 166.007 64.05C166.04 64.2167 166.107 64.5333 166.207 65C166.873 64.4667 167.64 64 168.507 63.6C169.373 63.1667 170.24 62.8333 171.107 62.6C171.973 62.3333 172.74 62.2 173.407 62.2C176.473 62.2 178.64 63.0833 179.907 64.85C181.207 66.5833 181.857 69.3833 181.857 73.25V79.95C181.857 80.4167 181.84 81.0833 181.807 81.95C181.773 82.7833 181.723 83.5833 181.657 84.35C182.223 84.2833 182.823 84.25 183.457 84.25C184.09 84.2167 184.573 84.2 184.907 84.2V88H171.807V84.75C173.207 84.75 174.057 84.35 174.357 83.55C174.657 82.7167 174.807 81.6333 174.807 80.3L174.757 73.2C174.757 71.0333 174.44 69.4333 173.807 68.4C173.207 67.3333 172.173 66.8 170.707 66.8C169.873 66.8 169.04 66.9833 168.207 67.35C167.407 67.7167 166.723 68.15 166.157 68.65V79.95C166.157 80.4167 166.14 81.0833 166.107 81.95C166.073 82.7833 166.023 83.5833 165.957 84.35C166.49 84.2833 167.073 84.25 167.707 84.25C168.373 84.2167 168.873 84.2 169.207 84.2V88H156.107ZM198.644 101.55C195.777 101.55 193.51 101.233 191.844 100.6C190.177 100 188.994 99.2 188.294 98.2C187.594 97.2 187.244 96.1333 187.244 95C187.244 93.9667 187.577 92.9167 188.244 91.85C188.944 90.7833 190.194 89.9167 191.994 89.25C190.627 88.8833 189.66 88.3 189.094 87.5C188.56 86.6667 188.294 85.7833 188.294 84.85C188.294 83.9833 188.644 83.0167 189.344 81.95C190.044 80.85 191.31 80.0167 193.144 79.45C191.744 78.8833 190.594 78 189.694 76.8C188.794 75.6 188.31 74.15 188.244 72.45C188.177 70.45 188.677 68.6833 189.744 67.15C190.81 65.5833 192.21 64.3667 193.944 63.5C195.677 62.6333 197.494 62.2 199.394 62.2C200.26 62.2 201.26 62.3167 202.394 62.55C203.527 62.7833 204.51 63.1833 205.344 63.75C205.71 62.7167 206.177 61.75 206.744 60.85C207.344 59.9167 208.06 59.1667 208.894 58.6C209.727 58 210.66 57.7 211.694 57.7C212.827 57.7 213.677 58 214.244 58.6C214.844 59.1667 215.144 59.9333 215.144 60.9C215.144 61.3 215.044 61.75 214.844 62.25C214.677 62.7167 214.36 63.1167 213.894 63.45C213.46 63.7833 212.844 63.95 212.044 63.95C211.544 63.95 211.044 63.7667 210.544 63.4C210.044 63 209.744 62.5333 209.644 62C209.21 62.1333 208.777 62.5667 208.344 63.3C207.91 64.0333 207.66 64.6833 207.594 65.25C209.56 66.95 210.544 69.1 210.544 71.7C210.544 73.6333 209.994 75.35 208.894 76.85C207.827 78.3167 206.427 79.4833 204.694 80.35C202.994 81.1833 201.16 81.6 199.194 81.6C198.76 81.6 198.277 81.5833 197.744 81.55C197.21 81.4833 196.694 81.45 196.194 81.45C195.46 81.45 194.844 81.5833 194.344 81.85C193.844 82.1167 193.594 82.4833 193.594 82.95C193.594 83.5833 194.077 84.0167 195.044 84.25C196.01 84.4833 197.66 84.6667 199.994 84.8C202.56 84.9333 204.794 85.2667 206.694 85.8C208.627 86.3 210.127 87.1 211.194 88.2C212.26 89.3 212.794 90.8167 212.794 92.75C212.794 94.1833 212.377 95.4333 211.544 96.5C210.71 97.6 209.594 98.5167 208.194 99.25C206.827 100.017 205.31 100.583 203.644 100.95C201.977 101.35 200.31 101.55 198.644 101.55ZM199.394 78.25C200.294 78.25 201.044 77.9667 201.644 77.4C202.277 76.8333 202.744 76.1167 203.044 75.25C203.377 74.3833 203.544 73.5 203.544 72.6C203.544 71.4333 203.394 70.3167 203.094 69.25C202.794 68.15 202.327 67.2667 201.694 66.6C201.094 65.9 200.31 65.55 199.344 65.55C198.01 65.55 196.977 66.15 196.244 67.35C195.51 68.55 195.144 69.9167 195.144 71.45C195.144 72.6167 195.31 73.7333 195.644 74.8C195.977 75.8333 196.46 76.6667 197.094 77.3C197.727 77.9333 198.494 78.25 199.394 78.25ZM200.094 98.1C202.46 98.1 204.244 97.6667 205.444 96.8C206.677 95.9333 207.294 95.0333 207.294 94.1C207.294 92.1 204.894 91 200.094 90.8C199.36 90.7333 198.51 90.6833 197.544 90.65C196.577 90.6167 195.727 90.5333 194.994 90.4C194.494 90.8 194.11 91.3 193.844 91.9C193.577 92.5 193.427 93.0833 193.394 93.65C193.327 94.9833 193.894 96.05 195.094 96.85C196.327 97.6833 197.994 98.1 200.094 98.1ZM229.961 101.55L229.861 50H236.761L236.561 101.55H229.961ZM242.9 101.55L242.8 50H249.7L249.5 101.55H242.9Z" fill="#3C3A3A"/>
</svg>
