<svg width="214" height="134" viewBox="0 0 214 134" fill="none" xmlns="http://www.w3.org/2000/svg">
<ellipse cx="53" cy="14" rx="53" ry="14" fill="#E4CC8F"/>
<path d="M53 33.5C65.1761 33.5 76.215 32.3787 84.2235 30.5586C88.2237 29.6495 91.4953 28.56 93.7789 27.3329C94.9204 26.7195 95.839 26.0592 96.4777 25.3499C97.119 24.6376 97.5 23.8495 97.5 23C97.5 22.1504 97.119 21.3624 96.4777 20.6501C95.839 19.9407 94.9204 19.2804 93.7789 18.6671C91.4953 17.44 88.2237 16.3505 84.2235 15.4413C76.215 13.6212 65.1761 12.5 53 12.5C40.8239 12.5 29.7849 13.6212 21.7765 15.4413C17.7763 16.3505 14.5047 17.44 12.2211 18.6671C11.0796 19.2804 10.161 19.9407 9.52234 20.6501C8.881 21.3624 8.5 22.1504 8.5 23C8.5 23.8495 8.881 24.6376 9.52234 25.3499C10.161 26.0592 11.0796 26.7195 12.2211 27.3329C14.5047 28.56 17.7763 29.6495 21.7765 30.5586C29.7849 32.3787 40.8239 33.5 53 33.5Z" fill="#FFB8A8" stroke="#FF9983"/>
<path d="M53 38.5C65.1761 38.5 76.215 37.3787 84.2235 35.5586C88.2237 34.6495 91.4953 33.56 93.7789 32.3329C94.9204 31.7195 95.839 31.0592 96.4777 30.3499C97.119 29.6376 97.5 28.8495 97.5 28C97.5 27.1504 97.119 26.3624 96.4777 25.6501C95.839 24.9407 94.9204 24.2804 93.7789 23.6671C91.4953 22.44 88.2237 21.3505 84.2235 20.4413C76.215 18.6212 65.1761 17.5 53 17.5C40.8239 17.5 29.7849 18.6212 21.7765 20.4413C17.7763 21.3505 14.5047 22.44 12.2211 23.6671C11.0796 24.2804 10.161 24.9407 9.52234 25.6501C8.881 26.3624 8.5 27.1504 8.5 28C8.5 28.8495 8.881 29.6376 9.52234 30.3499C10.161 31.0592 11.0796 31.7195 12.2211 32.3329C14.5047 33.56 17.7763 34.6495 21.7765 35.5586C29.7849 37.3787 40.8239 38.5 53 38.5Z" fill="#FFB8A8" stroke="#FF9983"/>
<path d="M93.4999 32.5C99.6666 42 116.5 56.6 134.5 39C152.5 21.4 185 51.3333 199 68.5C212.5 87.5 224.9 121.7 166.5 106.5" stroke="#FFB8A8" stroke-width="6"/>
<path d="M53 43.5C65.1761 43.5 76.215 42.3787 84.2235 40.5586C88.2237 39.6495 91.4953 38.56 93.7789 37.3329C94.9204 36.7195 95.839 36.0592 96.4777 35.3499C97.119 34.6376 97.5 33.8495 97.5 33C97.5 32.1504 97.119 31.3624 96.4777 30.6501C95.839 29.9407 94.9204 29.2804 93.7789 28.6671C91.4953 27.44 88.2237 26.3505 84.2235 25.4413C76.215 23.6212 65.1761 22.5 53 22.5C40.8239 22.5 29.7849 23.6212 21.7765 25.4413C17.7763 26.3505 14.5047 27.44 12.2211 28.6671C11.0796 29.2804 10.161 29.9407 9.52234 30.6501C8.881 31.3624 8.5 32.1504 8.5 33C8.5 33.8495 8.881 34.6376 9.52234 35.3499C10.161 36.0592 11.0796 36.7195 12.2211 37.3329C14.5047 38.56 17.7763 39.6495 21.7765 40.5586C29.7849 42.3787 40.8239 43.5 53 43.5Z" fill="#FFB8A8" stroke="#FF9983"/>
<path d="M53 48.5C65.1761 48.5 76.215 47.3787 84.2235 45.5586C88.2237 44.6495 91.4953 43.56 93.7789 42.3329C94.9204 41.7195 95.839 41.0592 96.4777 40.3499C97.119 39.6376 97.5 38.8495 97.5 38C97.5 37.1504 97.119 36.3624 96.4777 35.6501C95.839 34.9407 94.9204 34.2804 93.7789 33.6671C91.4953 32.44 88.2237 31.3505 84.2235 30.4413C76.215 28.6212 65.1761 27.5 53 27.5C40.8239 27.5 29.7849 28.6212 21.7765 30.4413C17.7763 31.3505 14.5047 32.44 12.2211 33.6671C11.0796 34.2804 10.161 34.9407 9.52234 35.6501C8.881 36.3624 8.5 37.1504 8.5 38C8.5 38.8495 8.881 39.6376 9.52234 40.3499C10.161 41.0592 11.0796 41.7195 12.2211 42.3329C14.5047 43.56 17.7763 44.6495 21.7765 45.5586C29.7849 47.3787 40.8239 48.5 53 48.5Z" fill="#FFB8A8" stroke="#FF9983"/>
<path d="M53 55.5C65.1761 55.5 76.215 54.3787 84.2235 52.5586C88.2237 51.6495 91.4953 50.56 93.7789 49.3329C94.9204 48.7195 95.839 48.0593 96.4777 47.3499C97.119 46.6376 97.5 45.8496 97.5 45C97.5 44.1504 97.119 43.3624 96.4777 42.6501C95.839 41.9407 94.9204 41.2805 93.7789 40.6671C91.4953 39.44 88.2237 38.3505 84.2235 37.4414C76.215 35.6213 65.1761 34.5 53 34.5C40.8239 34.5 29.7849 35.6213 21.7765 37.4414C17.7763 38.3505 14.5047 39.44 12.2211 40.6671C11.0796 41.2805 10.161 41.9407 9.52234 42.6501C8.881 43.3624 8.5 44.1504 8.5 45C8.5 45.8496 8.881 46.6376 9.52234 47.3499C10.161 48.0593 11.0796 48.7195 12.2211 49.3329C14.5047 50.56 17.7763 51.6495 21.7765 52.5586C29.7849 54.3787 40.8239 55.5 53 55.5Z" fill="#FFB8A8" stroke="#FF9983"/>
<path d="M53 63.5C65.1761 63.5 76.215 62.3787 84.2235 60.5586C88.2237 59.6495 91.4953 58.56 93.7789 57.3329C94.9204 56.7195 95.839 56.0593 96.4777 55.3499C97.119 54.6376 97.5 53.8496 97.5 53C97.5 52.1504 97.119 51.3624 96.4777 50.6501C95.839 49.9407 94.9204 49.2805 93.7789 48.6671C91.4953 47.44 88.2237 46.3505 84.2235 45.4414C76.215 43.6213 65.1761 42.5 53 42.5C40.8239 42.5 29.7849 43.6213 21.7765 45.4414C17.7763 46.3505 14.5047 47.44 12.2211 48.6671C11.0796 49.2805 10.161 49.9407 9.52234 50.6501C8.881 51.3624 8.5 52.1504 8.5 53C8.5 53.8496 8.881 54.6376 9.52234 55.3499C10.161 56.0593 11.0796 56.7195 12.2211 57.3329C14.5047 58.56 17.7763 59.6495 21.7765 60.5586C29.7849 62.3787 40.8239 63.5 53 63.5Z" fill="#FFB8A8" stroke="#FF9983"/>
<path d="M53 70.5C65.1761 70.5 76.215 69.3787 84.2235 67.5586C88.2237 66.6495 91.4953 65.56 93.7789 64.3329C94.9204 63.7195 95.839 63.0593 96.4777 62.3499C97.119 61.6376 97.5 60.8496 97.5 60C97.5 59.1504 97.119 58.3624 96.4777 57.6501C95.839 56.9407 94.9204 56.2805 93.7789 55.6671C91.4953 54.44 88.2237 53.3505 84.2235 52.4414C76.215 50.6213 65.1761 49.5 53 49.5C40.8239 49.5 29.7849 50.6213 21.7765 52.4414C17.7763 53.3505 14.5047 54.44 12.2211 55.6671C11.0796 56.2805 10.161 56.9407 9.52234 57.6501C8.881 58.3624 8.5 59.1504 8.5 60C8.5 60.8496 8.881 61.6376 9.52234 62.3499C10.161 63.0593 11.0796 63.7195 12.2211 64.3329C14.5047 65.56 17.7763 66.6495 21.7765 67.5586C29.7849 69.3787 40.8239 70.5 53 70.5Z" fill="#FFB8A8" stroke="#FF9983"/>
<path d="M53 77.5C65.1761 77.5 76.215 76.3787 84.2235 74.5586C88.2237 73.6495 91.4953 72.56 93.7789 71.3329C94.9204 70.7195 95.839 70.0592 96.4777 69.3499C97.119 68.6376 97.5 67.8495 97.5 67C97.5 66.1504 97.119 65.3624 96.4777 64.6501C95.839 63.9407 94.9204 63.2804 93.7789 62.6671C91.4953 61.44 88.2237 60.3505 84.2235 59.4413C76.215 57.6212 65.1761 56.5 53 56.5C40.8239 56.5 29.7849 57.6212 21.7765 59.4413C17.7763 60.3505 14.5047 61.44 12.2211 62.6671C11.0796 63.2804 10.161 63.9407 9.52234 64.6501C8.881 65.3624 8.5 66.1504 8.5 67C8.5 67.8495 8.881 68.6376 9.52234 69.3499C10.161 70.0592 11.0796 70.7195 12.2211 71.3329C14.5047 72.56 17.7763 73.6495 21.7765 74.5586C29.7849 76.3787 40.8239 77.5 53 77.5Z" fill="#FFB8A8" stroke="#FF9983"/>
<path d="M53 83.4999C65.1761 83.4999 76.215 82.3787 84.2235 80.5586C88.2237 79.6494 91.4953 78.5599 93.7789 77.3328C94.9204 76.7195 95.839 76.0592 96.4777 75.3498C97.119 74.6375 97.5 73.8495 97.5 72.9999C97.5 72.1504 97.119 71.3623 96.4777 70.65C95.839 69.9407 94.9204 69.2804 93.7789 68.667C91.4953 67.44 88.2237 66.3504 84.2235 65.4413C76.215 63.6212 65.1761 62.4999 53 62.4999C40.8239 62.4999 29.7849 63.6212 21.7765 65.4413C17.7763 66.3504 14.5047 67.44 12.2211 68.667C11.0796 69.2804 10.161 69.9407 9.52234 70.65C8.881 71.3623 8.5 72.1504 8.5 72.9999C8.5 73.8495 8.881 74.6375 9.52234 75.3498C10.161 76.0592 11.0796 76.7195 12.2211 77.3328C14.5047 78.5599 17.7763 79.6494 21.7765 80.5586C29.7849 82.3787 40.8239 83.4999 53 83.4999Z" fill="#FFB8A8" stroke="#FF9983"/>
<path d="M53 90.5C65.1761 90.5 76.215 89.3787 84.2235 87.5586C88.2237 86.6495 91.4953 85.56 93.7789 84.3329C94.9204 83.7195 95.839 83.0592 96.4777 82.3499C97.119 81.6376 97.5 80.8495 97.5 80C97.5 79.1504 97.119 78.3624 96.4777 77.6501C95.839 76.9407 94.9204 76.2804 93.7789 75.6671C91.4953 74.44 88.2237 73.3505 84.2235 72.4413C76.215 70.6212 65.1761 69.5 53 69.5C40.8239 69.5 29.7849 70.6212 21.7765 72.4413C17.7763 73.3505 14.5047 74.44 12.2211 75.6671C11.0796 76.2804 10.161 76.9407 9.52234 77.6501C8.881 78.3624 8.5 79.1504 8.5 80C8.5 80.8495 8.881 81.6376 9.52234 82.3499C10.161 83.0592 11.0796 83.7195 12.2211 84.3329C14.5047 85.56 17.7763 86.6495 21.7765 87.5586C29.7849 89.3787 40.8239 90.5 53 90.5Z" fill="#FFB8A8" stroke="#FF9983"/>
<path d="M53 97.5C65.1761 97.5 76.215 96.3787 84.2235 94.5586C88.2237 93.6495 91.4953 92.56 93.7789 91.3329C94.9204 90.7195 95.839 90.0593 96.4777 89.3499C97.119 88.6376 97.5 87.8496 97.5 87C97.5 86.1504 97.119 85.3624 96.4777 84.6501C95.839 83.9407 94.9204 83.2805 93.7789 82.6671C91.4953 81.44 88.2237 80.3505 84.2235 79.4414C76.215 77.6213 65.1761 76.5 53 76.5C40.8239 76.5 29.7849 77.6213 21.7765 79.4414C17.7763 80.3505 14.5047 81.44 12.2211 82.6671C11.0796 83.2805 10.161 83.9407 9.52234 84.6501C8.881 85.3624 8.5 86.1504 8.5 87C8.5 87.8496 8.881 88.6376 9.52234 89.3499C10.161 90.0593 11.0796 90.7195 12.2211 91.3329C14.5047 92.56 17.7763 93.6495 21.7765 94.5586C29.7849 96.3787 40.8239 97.5 53 97.5Z" fill="#FFB8A8" stroke="#FF9983"/>
<path d="M53 104.5C65.1761 104.5 76.215 103.379 84.2235 101.559C88.2237 100.649 91.4953 99.56 93.7789 98.3329C94.9204 97.7195 95.839 97.0593 96.4777 96.3499C97.119 95.6376 97.5 94.8496 97.5 94C97.5 93.1504 97.119 92.3624 96.4777 91.6501C95.839 90.9407 94.9204 90.2805 93.7789 89.6671C91.4953 88.44 88.2237 87.3505 84.2235 86.4414C76.215 84.6213 65.1761 83.5 53 83.5C40.8239 83.5 29.7849 84.6213 21.7765 86.4414C17.7763 87.3505 14.5047 88.44 12.2211 89.6671C11.0796 90.2805 10.161 90.9407 9.52234 91.6501C8.881 92.3624 8.5 93.1504 8.5 94C8.5 94.8496 8.881 95.6376 9.52234 96.3499C10.161 97.0593 11.0796 97.7195 12.2211 98.3329C14.5047 99.56 17.7763 100.649 21.7765 101.559C29.7849 103.379 40.8239 104.5 53 104.5Z" fill="#FFB8A8" stroke="#FF9983"/>
<path d="M53 111.5C65.1761 111.5 76.215 110.379 84.2235 108.559C88.2237 107.649 91.4953 106.56 93.7789 105.333C94.9204 104.72 95.839 104.059 96.4777 103.35C97.119 102.638 97.5 101.85 97.5 101C97.5 100.15 97.119 99.3624 96.4777 98.6501C95.839 97.9407 94.9204 97.2805 93.7789 96.6671C91.4953 95.44 88.2237 94.3505 84.2235 93.4414C76.215 91.6213 65.1761 90.5 53 90.5C40.8239 90.5 29.7849 91.6213 21.7765 93.4414C17.7763 94.3505 14.5047 95.44 12.2211 96.6671C11.0796 97.2805 10.161 97.9407 9.52234 98.6501C8.881 99.3624 8.5 100.15 8.5 101C8.5 101.85 8.881 102.638 9.52234 103.35C10.161 104.059 11.0796 104.72 12.2211 105.333C14.5047 106.56 17.7763 107.649 21.7765 108.559C29.7849 110.379 40.8239 111.5 53 111.5Z" fill="#FFB8A8" stroke="#FF9983"/>
<path d="M53 118.5C65.1761 118.5 76.215 117.379 84.2235 115.559C88.2237 114.649 91.4953 113.56 93.7789 112.333C94.9204 111.72 95.839 111.059 96.4777 110.35C97.119 109.638 97.5 108.85 97.5 108C97.5 107.15 97.119 106.362 96.4777 105.65C95.839 104.941 94.9204 104.28 93.7789 103.667C91.4953 102.44 88.2237 101.351 84.2235 100.441C76.215 98.6213 65.1761 97.5 53 97.5C40.8239 97.5 29.7849 98.6213 21.7765 100.441C17.7763 101.351 14.5047 102.44 12.2211 103.667C11.0796 104.28 10.161 104.941 9.52234 105.65C8.881 106.362 8.5 107.15 8.5 108C8.5 108.85 8.881 109.638 9.52234 110.35C10.161 111.059 11.0796 111.72 12.2211 112.333C14.5047 113.56 17.7763 114.649 21.7765 115.559C29.7849 117.379 40.8239 118.5 53 118.5Z" fill="#FFB8A8" stroke="#FF9983"/>
<path d="M53 124.5C65.1761 124.5 76.215 123.379 84.2235 121.559C88.2237 120.649 91.4953 119.56 93.7789 118.333C94.9204 117.72 95.839 117.059 96.4777 116.35C97.119 115.638 97.5 114.85 97.5 114C97.5 113.15 97.119 112.362 96.4777 111.65C95.839 110.941 94.9204 110.28 93.7789 109.667C91.4953 108.44 88.2237 107.351 84.2235 106.441C76.215 104.621 65.1761 103.5 53 103.5C40.8239 103.5 29.7849 104.621 21.7765 106.441C17.7763 107.351 14.5047 108.44 12.2211 109.667C11.0796 110.28 10.161 110.941 9.52234 111.65C8.881 112.362 8.5 113.15 8.5 114C8.5 114.85 8.881 115.638 9.52234 116.35C10.161 117.059 11.0796 117.72 12.2211 118.333C14.5047 119.56 17.7763 120.649 21.7765 121.559C29.7849 123.379 40.8239 124.5 53 124.5Z" fill="#FFB8A8" stroke="#FF9983"/>
<ellipse cx="54" cy="122.5" rx="53" ry="11.5" fill="#E4CC8F"/>
</svg>
