<svg width="202" height="141" viewBox="0 0 202 141" fill="none" xmlns="http://www.w3.org/2000/svg">
<path d="M115.354 90.0406C108.704 85.1076 94.7948 79.5148 92.3541 96.6072C89.9135 113.7 62.4053 101.689 48.9562 93.5474C35.0717 83.9968 16.0488 63.5892 51.0336 58.3634" stroke="#F35555" stroke-width="6"/>
<path d="M51.2 61L49.7 55C46.2 55 28.7 59 27.7 71.5C26.8229 82.465 41.2 92 47.2 96.5C53.2 101 71.0973 107.816 72.2 108C75.2001 108.5 90.2 110.5 93.2 102C96.2 93.5 97.2 88 101.2 88C104.4 88 110.7 90.3333 113.2 92L116.2 87.5C100.2 77 92.7 85.5 91.2 89C89.7 92.5 89.9 99.6 84.7 102C78.2 105 68.7 101 59.2 96.5C49.7 92 35.2 80 33.7 71.5C32.5 64.7 45.3667 61.8333 51.2 61Z" stroke="black"/>
<path d="M200.7 70C200.7 97.3198 177.661 119.5 149.2 119.5C120.739 119.5 97.7001 97.3198 97.7001 70C97.7001 42.6802 120.739 20.5 149.2 20.5C177.661 20.5 200.7 42.6802 200.7 70Z" fill="#F35555" stroke="black"/>
<path d="M122.7 88.5C110.3 84.1 103.867 62.1667 101.7 52.5C92.5001 72.5 101.7 93.9429 112.7 104C130.2 120 157.7 125.5 182.2 106.5C209.253 85.5203 198.533 53.1667 191.7 42.5C188.533 59.6667 184.7 83.5 166.2 91.5C155.7 96.0405 135.1 92.9 122.7 88.5Z" fill="#783434" fill-opacity="0.3" stroke="#624040"/>
<path d="M128.7 115C130.902 114.287 133.436 113.303 136.2 112.036M193.2 45C192.505 47.7536 191.703 50.4198 190.806 53M140.7 109.822C143.564 108.317 146.595 106.547 149.704 104.5M140.7 109.822C141.488 108.21 142.31 106.427 143.144 104.5M140.7 109.822C139.146 110.638 137.642 111.375 136.2 112.036M146.7 21C147.821 22.4383 148.82 23.9577 149.704 25.5475M149.704 104.5C160.036 87.8333 175.5 47.8 154.7 21M149.704 104.5C153.019 102.318 156.423 99.8213 159.808 97M163.2 22.5C170.939 33.6667 181.095 64.2 159.808 97M159.808 97C163.21 94.1654 166.593 91.0027 169.85 87.5M171.7 25.5C178.8 38.7261 188.37 69.6426 169.85 87.5M169.85 87.5C175.417 81.5125 180.614 74.5319 184.899 66.5M181.2 31C184.833 39.0066 190.658 57.3157 184.899 66.5M184.899 66.5C187.144 62.2914 189.139 57.7942 190.806 53M189.2 38.5C190.579 41.1667 192.832 47.8 190.806 53M196.2 53C191.533 70.8333 173 108.8 136.2 118M199.2 60C196.369 75.3333 182.506 108.7 149.704 119.5M169.85 115C177.3 110.167 193.9 95.5 200.7 75.5M97.7001 63.5C98.442 63.9943 99.2782 64.5199 100.2 65.066M152.586 75.5C151.747 79.265 150.767 82.9509 149.704 86.4863M152.586 75.5C153.351 72.0697 153.998 68.5736 154.486 65.066M152.586 75.5C151.629 75.7293 150.668 75.9271 149.704 76.0951C147.526 76.4745 145.334 76.702 143.144 76.7987M97.7001 75.5C108.717 81.6576 134.542 92.4754 149.704 86.4863M149.704 86.4863C148.592 90.1825 147.39 93.7142 146.162 97M100.2 86.4863C107.008 91.3242 125.731 100.2 146.162 97M146.162 97C145.161 99.6781 144.143 102.193 143.144 104.5M107.2 97C110.28 100.5 121.78 106.9 143.144 104.5M118.7 109.822C121.213 110.572 128.231 112.065 136.2 112.036M100.2 65.066C106.202 51.0756 124.506 23.5855 149.704 25.5475M100.2 65.066C102.171 66.2331 104.532 67.4935 107.2 68.7409M149.704 25.5475C150.851 27.6109 151.805 29.7928 152.586 32.0698M107.2 68.7409C112.791 55.8738 129.694 30.5256 152.586 32.0698M107.2 68.7409C109.061 69.611 111.07 70.4747 113.2 71.2962M152.586 32.0698C153.296 34.1405 153.862 36.2898 154.299 38.5M113.2 71.2962C121.274 59.0308 140.797 35.3 154.299 38.5M113.2 71.2962C115.461 72.1681 117.856 72.9924 120.353 73.7259M154.299 38.5C154.716 40.616 155.016 42.7878 155.209 45M120.353 73.7259C127.091 62.8173 143.496 41.8 155.209 45M120.353 73.7259C122.67 74.407 125.075 75.0099 127.539 75.5M155.209 45C155.374 46.8967 155.462 48.823 155.479 50.7692M127.539 75.5C131.257 67.5128 142.051 51.3846 155.479 50.7692M127.539 75.5C130.362 76.0616 133.263 76.4752 136.2 76.689M155.479 50.7692C155.506 53.8101 155.361 56.8995 155.075 60M136.2 76.689C139.407 69.9593 147.672 57.2 155.075 60M136.2 76.689C138.499 76.8563 140.821 76.9012 143.144 76.7987M155.075 60C154.919 61.6873 154.721 63.378 154.486 65.066M143.144 76.7987C145.151 72.8878 150.229 65.066 154.486 65.066" stroke="black"/>
<path d="M33.4266 3.97455L19.2208 11.3306C28.7875 34.5428 69.5218 93.7164 77.7539 107.32C86.9448 122.507 95.5443 135.298 100.404 137.279C115.897 143.596 117.662 127.056 108.774 114.243C100.147 110.1 108.523 129.177 100.556 120.77L72.8699 74.5299L33.4266 3.97455Z" fill="#D2CCCC" stroke="#9C9A9A" stroke-width="2"/>
</svg>
